<svg version="1.1" id="Layer_1" xmlns="http://www.w3.org/2000/svg" xmlns:xlink="http://www.w3.org/1999/xlink" x="0px" y="0px"
	 width="100%" viewBox="0 0 753 321" enable-background="new 0 0 753 321" xml:space="preserve">
<path fill="#FEFEFE" opacity="1.000000" stroke="none" 
	d="
M483.000000,322.000000 
	C322.037323,322.000000 161.574661,322.000000 1.055993,322.000000 
	C1.055993,215.062241 1.055993,108.124443 1.055993,1.093322 
	C251.879379,1.093322 502.758820,1.093322 753.819092,1.093322 
	C753.819092,107.999756 753.819092,214.999847 753.819092,322.000000 
	C663.791016,322.000000 573.645508,322.000000 483.000000,322.000000 
M123.632149,57.894844 
	C108.074944,65.212448 100.117203,77.505882 100.081734,94.658531 
	C99.992142,137.982986 100.030228,181.307785 100.074829,224.632370 
	C100.098961,248.081512 115.898941,264.610748 139.238159,264.754517 
	C183.061066,265.024536 226.887939,265.004761 270.710999,264.740845 
	C291.779114,264.613983 308.880829,248.500839 308.947113,229.064148 
	C309.103882,183.075073 309.053284,137.084930 308.896637,91.095848 
	C308.883362,87.202393 307.972168,83.115257 306.583771,79.457581 
	C300.833649,64.309158 287.107880,55.048195 270.001221,54.991158 
	C226.677505,54.846699 183.352585,54.836769 140.029465,55.045914 
	C134.813889,55.071087 129.606445,56.778301 123.632149,57.894844 
M397.821808,110.031181 
	C395.437988,98.011093 388.972961,89.088875 377.139709,85.295616 
	C364.537354,81.255814 351.472900,83.950577 338.502197,83.149513 
	C338.502197,104.855522 338.502197,125.744400 338.502197,147.121429 
	C346.971161,147.121429 355.102234,147.029495 363.230560,147.138977 
	C386.074280,147.446655 399.973450,131.221146 397.821808,110.031181 
M428.689941,159.001022 
	C434.262299,161.018906 439.691833,164.021866 445.436005,164.854858 
	C458.425751,166.738571 474.562836,160.291138 474.157104,141.313904 
	C473.929352,130.661255 474.135101,119.999359 474.143768,109.341629 
	C474.146698,105.748955 474.144257,102.156281 474.144257,98.713394 
	C469.728119,98.713394 466.018036,98.713394 462.243408,98.713394 
	C462.104736,100.600006 462.000275,102.020950 461.886169,103.573524 
	C449.032928,95.779884 438.717743,96.176727 431.030487,104.596260 
	C423.585144,112.750832 422.885071,128.106735 430.402802,136.844513 
	C433.245789,140.148880 437.720825,142.715790 441.945251,144.016220 
	C449.154602,146.235519 455.916809,143.767563 461.869324,138.577774 
	C462.199677,145.975449 461.215302,149.792007 457.858612,151.955185 
	C449.288330,157.478210 441.020111,154.331436 432.707245,150.225616 
	C431.172638,153.127182 429.785217,155.750488 428.689941,159.001022 
M571.664062,191.532471 
	C560.854675,192.877991 554.672729,197.982086 552.010010,207.759857 
	C549.331299,217.596466 552.272766,229.081726 559.463074,234.008743 
	C569.008057,240.549225 578.632141,240.428925 587.924133,232.113602 
	C588.189453,237.533264 588.200562,242.409912 583.968994,245.467102 
	C575.419434,251.643906 566.960144,248.094086 558.521423,244.123856 
	C556.912476,247.078049 555.442810,249.776474 553.946167,252.524490 
	C560.627686,257.044922 567.655396,258.957306 575.036682,259.044098 
	C590.643250,259.227570 599.986694,249.825104 599.996155,234.378555 
	C600.003784,221.898148 599.994507,209.417755 599.992859,196.937347 
	C599.992676,195.356110 599.992859,193.774872 599.992859,192.300415 
	C595.590698,192.300415 591.975525,192.300415 588.243225,192.300415 
	C588.074890,194.254791 587.929138,195.947662 587.890076,196.400955 
	C582.620483,194.732666 577.555786,193.129242 571.664062,191.532471 
M346.439789,211.859268 
	C345.446838,203.326385 348.306549,196.256973 355.453796,191.602493 
	C366.048035,184.703247 375.690063,188.143158 384.684113,196.024719 
	C387.194550,192.812332 389.398438,189.992188 391.557892,187.228912 
	C378.136719,173.571167 355.459564,173.412338 342.688507,186.511429 
	C329.802765,199.728149 330.337036,220.223404 343.896759,232.860794 
	C357.218292,245.276184 379.028503,244.187012 391.574310,230.159958 
	C389.308685,227.635010 387.009216,225.072357 384.750031,222.554611 
	C366.459991,234.374161 350.683014,230.147385 346.439789,211.859268 
M544.525146,141.978058 
	C548.994141,145.846436 554.131409,147.552124 560.090332,147.622009 
	C566.300903,147.694809 571.114746,144.968460 575.699097,140.646027 
	C575.976562,143.137802 576.184937,145.008911 576.386047,146.815094 
	C580.371277,146.815094 583.964111,146.815094 587.625977,146.815094 
	C587.625977,130.531784 587.625977,114.508316 587.625977,98.481110 
	C583.621948,98.481110 580.009155,98.481110 576.234558,98.481110 
	C576.089233,100.444824 575.960632,102.182541 575.784790,104.559563 
	C567.910034,97.482994 559.442200,95.606369 550.184509,99.782921 
	C535.126587,106.576172 532.008667,128.016861 544.525146,141.978058 
M500.694061,219.043106 
	C501.622864,229.583450 507.020569,236.996811 517.085754,240.029831 
	C528.648376,243.514069 538.986694,240.908279 547.332886,231.722122 
	C545.168884,229.351959 543.176941,227.170212 541.273499,225.085388 
	C527.269958,233.826782 519.765320,233.415543 514.580017,223.524307 
	C525.987976,220.178024 537.311951,216.856384 548.644104,213.532349 
	C547.473816,203.952866 543.808838,196.786667 534.783875,193.384491 
	C516.674500,186.557739 500.373047,198.401321 500.694061,219.043106 
M645.527832,226.323593 
	C644.018799,227.352676 642.577759,228.503723 640.989136,229.390152 
	C633.186218,233.744019 625.419067,231.614899 620.893250,223.551682 
	C632.319397,220.205673 643.637329,216.891342 654.844177,213.609543 
	C653.818542,200.584061 646.402771,192.890213 634.113831,191.637848 
	C621.956238,190.398895 610.923218,197.579681 608.023193,208.618805 
	C604.621826,221.565964 609.503601,233.803711 620.058960,238.790009 
	C631.787903,244.330704 646.791626,240.956100 653.953796,230.643204 
	C651.306702,229.042984 648.680908,227.455673 645.527832,226.323593 
M429.654633,193.790558 
	C419.757721,190.303467 410.202759,190.742096 401.737152,197.316940 
	C393.159576,203.978760 390.568329,216.253555 394.936066,226.745468 
	C399.242798,237.090836 409.891235,242.712418 422.362274,241.224426 
	C433.490784,239.896622 441.977966,232.294693 443.860382,221.968765 
	C446.090088,209.737747 441.201294,199.680573 429.654633,193.790558 
M508.549500,133.781219 
	C510.138000,149.415710 525.821716,150.336395 535.064941,143.698547 
	C534.220886,141.045914 533.346558,138.297958 532.464966,135.527313 
	C530.062927,135.923981 527.969727,136.840973 526.212158,136.404953 
	C524.319214,135.935364 521.333252,134.282745 521.256042,132.999802 
	C520.791199,125.282753 521.025146,117.523628 521.025146,109.260666 
	C525.470215,109.260666 529.717712,109.260666 534.055420,109.260666 
	C534.055420,105.994247 534.055420,103.262207 534.055420,100.008675 
	C529.454041,100.008675 525.196838,100.008675 520.497070,100.008675 
	C520.497070,95.413857 520.497070,91.337730 520.497070,86.806511 
	C517.424988,86.806511 514.791077,86.920403 512.171265,86.776993 
	C509.063690,86.606873 508.233643,88.033157 508.262665,90.967583 
	C508.400787,104.948959 508.361542,118.932091 508.549500,133.781219 
M477.583862,176.110687 
	C477.597412,191.756256 477.443542,207.404953 477.735992,223.045303 
	C477.814362,227.237030 478.490906,231.761108 480.244202,235.498718 
	C482.986694,241.345154 490.981659,243.359131 497.766418,240.162079 
	C502.921600,237.732895 498.683563,233.530441 498.776703,230.135620 
	C498.782135,229.936966 498.320770,229.725525 498.071442,229.526230 
	C490.474213,230.527008 489.853851,230.028320 489.732941,222.293945 
	C489.652283,217.135498 489.717896,211.974777 489.717896,206.815063 
	C489.717957,195.874390 489.717896,184.933716 489.717896,172.644363 
	C485.317566,173.582336 481.460449,174.404510 477.583862,176.110687 
M611.148193,111.499496 
	C611.148193,101.040215 611.148193,90.580925 611.148193,79.883553 
	C607.083984,79.883553 603.327698,79.883553 599.347595,79.883553 
	C599.347595,98.174843 599.130493,116.252487 599.467224,134.319809 
	C599.582520,140.509857 602.610413,145.938004 609.293030,147.049072 
	C613.010193,147.667114 617.192749,146.707230 620.846008,145.495392 
	C621.608521,145.242447 621.005493,140.752579 620.947021,138.217209 
	C620.929260,137.445084 620.627808,136.679504 620.464478,135.947464 
	C611.772949,136.525131 611.180054,135.948166 611.139893,126.964867 
	C611.118286,122.143044 611.143066,117.321014 611.148193,111.499496 
M463.008087,218.404755 
	C463.008087,203.503769 463.008087,188.602783 463.008087,173.702316 
	C458.656830,173.702316 455.047638,173.702316 451.141846,173.702316 
	C451.141846,192.071472 450.621094,210.212906 451.327087,228.306458 
	C451.789032,240.145874 462.925262,244.970337 473.664307,238.791504 
	C473.272858,235.765335 472.877411,232.708313 472.487457,229.693497 
	C463.091064,230.135620 463.014832,230.056946 463.008118,220.370651 
	C463.007904,220.037399 463.008087,219.704163 463.008087,218.404755 
M485.300232,135.461609 
	C485.300232,139.212753 485.300232,142.963913 485.300232,146.868561 
	C489.814178,146.868561 493.560699,146.868561 497.469635,146.868561 
	C497.469635,130.603577 497.469635,114.607239 497.469635,98.689377 
	C493.369110,98.689377 489.650391,98.689377 485.300476,98.689377 
	C485.300476,110.934380 485.300476,122.704323 485.300232,135.461609 
M405.647858,112.515854 
	C405.647858,123.932182 405.647858,135.348511 405.647858,146.637131 
	C410.131561,146.637131 413.846741,146.637131 417.468628,146.637131 
	C417.468628,130.318176 417.468628,114.441048 417.468628,98.455406 
	C413.453918,98.455406 409.842377,98.455406 405.648010,98.455406 
	C405.648010,102.950363 405.648010,107.237083 405.647858,112.515854 
M412.900085,91.031898 
	C417.292847,89.921829 419.093719,86.693176 417.723389,82.826897 
	C416.971222,80.704651 414.169464,78.430733 411.910553,77.923607 
	C408.402496,77.136063 406.140778,79.862495 405.247009,83.194534 
	C404.165131,87.228142 406.973511,90.352341 412.900085,91.031898 
M495.465576,89.801376 
	C498.226959,87.207802 499.359131,83.850937 496.844818,81.004829 
	C495.333801,79.294418 492.031677,78.138123 489.722107,78.398308 
	C486.104340,78.805862 484.219330,83.056152 485.264343,86.479401 
	C486.516846,90.582367 489.693634,91.821777 495.465576,89.801376 
z"/>
<path fill="#C71270" opacity="1.000000" stroke="none" 
	d="
M124.013695,57.800377 
	C129.606445,56.778301 134.813889,55.071087 140.029465,55.045914 
	C183.352585,54.836769 226.677505,54.846699 270.001221,54.991158 
	C287.107880,55.048195 300.833649,64.309158 306.583771,79.457581 
	C307.972168,83.115257 308.883362,87.202393 308.896637,91.095848 
	C309.053284,137.084930 309.103882,183.075073 308.947113,229.064148 
	C308.880829,248.500839 291.779114,264.613983 270.710999,264.740845 
	C226.887939,265.004761 183.061066,265.024536 139.238159,264.754517 
	C115.898941,264.610748 100.098961,248.081512 100.074829,224.632370 
	C100.030228,181.307785 99.992142,137.982986 100.081734,94.658531 
	C100.117203,77.505882 108.074944,65.212448 124.013695,57.800377 
M137.516205,122.277046 
	C149.791641,135.283371 162.067078,148.289703 174.575089,161.542435 
	C162.814621,172.931320 149.956116,185.383545 137.247025,197.691071 
	C142.025314,202.562424 146.411942,207.034500 151.127380,211.841782 
	C169.050385,194.575180 186.927979,177.352356 205.037720,159.905869 
	C186.759613,142.281067 168.996109,125.152489 151.217484,108.009323 
	C146.171722,112.996117 141.812836,117.304070 137.516205,122.277046 
M265.370667,195.345200 
	C250.994675,195.345200 236.618683,195.345200 222.415710,195.345200 
	C222.415710,201.405579 222.415710,206.636917 222.415710,212.080811 
	C238.273422,212.080811 253.728394,212.144073 269.180359,211.956894 
	C270.375519,211.942413 272.479431,210.249298 272.571045,209.197845 
	C272.955017,204.791702 272.733093,200.332779 272.733093,195.345490 
	C270.224579,195.345490 268.275879,195.345490 265.370667,195.345200 
z"/>
<path fill="#2D2A2B" opacity="1.000000" stroke="none" 
	d="
M397.868286,110.475464 
	C399.973450,131.221146 386.074280,147.446655 363.230560,147.138977 
	C355.102234,147.029495 346.971161,147.121429 338.502197,147.121429 
	C338.502197,125.744400 338.502197,104.855522 338.502197,83.149513 
	C351.472900,83.950577 364.537354,81.255814 377.139709,85.295616 
	C388.972961,89.088875 395.437988,98.011093 397.868286,110.475464 
M385.200745,118.704498 
	C387.151520,108.542328 381.519836,97.810722 371.957428,95.517479 
	C365.344452,93.931587 358.317444,94.072395 351.035980,93.401108 
	C351.035980,108.532082 351.035980,122.364632 351.035980,136.347702 
	C356.240417,136.347702 361.063660,136.571564 365.859192,136.301956 
	C376.438232,135.707169 382.832916,129.990707 385.200745,118.704498 
z"/>
<path fill="#2B2728" opacity="1.000000" stroke="none" 
	d="
M428.543854,158.687408 
	C429.785217,155.750488 431.172638,153.127182 432.707245,150.225616 
	C441.020111,154.331436 449.288330,157.478210 457.858612,151.955185 
	C461.215302,149.792007 462.199677,145.975449 461.869324,138.577774 
	C455.916809,143.767563 449.154602,146.235519 441.945251,144.016220 
	C437.720825,142.715790 433.245789,140.148880 430.402802,136.844513 
	C422.885071,128.106735 423.585144,112.750832 431.030487,104.596260 
	C438.717743,96.176727 449.032928,95.779884 461.886169,103.573524 
	C462.000275,102.020950 462.104736,100.600006 462.243408,98.713394 
	C466.018036,98.713394 469.728119,98.713394 474.144257,98.713394 
	C474.144257,102.156281 474.146698,105.748955 474.143768,109.341629 
	C474.135101,119.999359 473.929352,130.661255 474.157104,141.313904 
	C474.562836,160.291138 458.425751,166.738571 445.436005,164.854858 
	C439.691833,164.021866 434.262299,161.018906 428.543854,158.687408 
M452.062378,107.681831 
	C450.902252,107.666534 449.740082,107.599586 448.582306,107.644821 
	C443.421753,107.846451 439.844910,110.410645 437.853668,115.116257 
	C435.555634,120.546883 435.912537,125.857933 439.508698,130.573349 
	C442.712280,134.774017 447.206879,136.170364 452.365692,135.060150 
	C458.134186,133.818726 461.579926,129.461121 462.156677,122.894470 
	C462.820892,115.331886 460.116119,110.938416 452.062378,107.681831 
z"/>
<path fill="#2A2627" opacity="1.000000" stroke="none" 
	d="
M572.077576,191.529144 
	C577.555786,193.129242 582.620483,194.732666 587.890076,196.400955 
	C587.929138,195.947662 588.074890,194.254791 588.243225,192.300415 
	C591.975525,192.300415 595.590698,192.300415 599.992859,192.300415 
	C599.992859,193.774872 599.992676,195.356110 599.992859,196.937347 
	C599.994507,209.417755 600.003784,221.898148 599.996155,234.378555 
	C599.986694,249.825104 590.643250,259.227570 575.036682,259.044098 
	C567.655396,258.957306 560.627686,257.044922 553.946167,252.524490 
	C555.442810,249.776474 556.912476,247.078049 558.521423,244.123856 
	C566.960144,248.094086 575.419434,251.643906 583.968994,245.467102 
	C588.200562,242.409912 588.189453,237.533264 587.924133,232.113602 
	C578.632141,240.428925 569.008057,240.549225 559.463074,234.008743 
	C552.272766,229.081726 549.331299,217.596466 552.010010,207.759857 
	C554.672729,197.982086 560.854675,192.877991 572.077576,191.529144 
M568.779907,203.025726 
	C567.562256,204.125992 566.136475,205.068741 565.163513,206.354218 
	C561.255859,211.516907 561.241272,218.975739 564.968811,224.008713 
	C568.319458,228.532959 573.857056,230.334366 579.092285,228.603088 
	C586.283630,226.224945 590.023621,218.118759 587.526123,210.323196 
	C585.064209,202.638870 578.120178,199.678650 568.779907,203.025726 
z"/>
<path fill="#2A2728" opacity="1.000000" stroke="none" 
	d="
M346.544128,212.252838 
	C350.683014,230.147385 366.459991,234.374161 384.750031,222.554611 
	C387.009216,225.072357 389.308685,227.635010 391.574310,230.159958 
	C379.028503,244.187012 357.218292,245.276184 343.896759,232.860794 
	C330.337036,220.223404 329.802765,199.728149 342.688507,186.511429 
	C355.459564,173.412338 378.136719,173.571167 391.557892,187.228912 
	C389.398438,189.992188 387.194550,192.812332 384.684113,196.024719 
	C375.690063,188.143158 366.048035,184.703247 355.453796,191.602493 
	C348.306549,196.256973 345.446838,203.326385 346.544128,212.252838 
z"/>
<path fill="#2A2627" opacity="1.000000" stroke="none" 
	d="
M544.260010,141.738190 
	C532.008667,128.016861 535.126587,106.576172 550.184509,99.782921 
	C559.442200,95.606369 567.910034,97.482994 575.784790,104.559563 
	C575.960632,102.182541 576.089233,100.444824 576.234558,98.481110 
	C580.009155,98.481110 583.621948,98.481110 587.625977,98.481110 
	C587.625977,114.508316 587.625977,130.531784 587.625977,146.815094 
	C583.964111,146.815094 580.371277,146.815094 576.386047,146.815094 
	C576.184937,145.008911 575.976562,143.137802 575.699097,140.646027 
	C571.114746,144.968460 566.300903,147.694809 560.090332,147.622009 
	C554.131409,147.552124 548.994141,145.846436 544.260010,141.738190 
M570.450562,135.302399 
	C571.407837,134.383987 572.483887,133.560013 573.302002,132.530960 
	C576.995117,127.885468 577.339111,119.114990 574.098694,114.204010 
	C570.921936,109.389511 565.274780,107.038345 559.893311,108.235970 
	C554.114014,109.522133 550.400024,113.151009 549.248108,118.790070 
	C548.034912,124.729149 548.827515,130.602142 553.887024,134.699814 
	C558.770935,138.655182 564.283936,138.516617 570.450562,135.302399 
z"/>
<path fill="#2C2829" opacity="1.000000" stroke="none" 
	d="
M500.640045,218.629730 
	C500.373047,198.401321 516.674500,186.557739 534.783875,193.384491 
	C543.808838,196.786667 547.473816,203.952866 548.644104,213.532349 
	C537.311951,216.856384 525.987976,220.178024 514.580017,223.524307 
	C519.765320,233.415543 527.269958,233.826782 541.273499,225.085388 
	C543.176941,227.170212 545.168884,229.351959 547.332886,231.722122 
	C538.986694,240.908279 528.648376,243.514069 517.085754,240.029831 
	C507.020569,236.996811 501.622864,229.583450 500.640045,218.629730 
M535.641235,205.841400 
	C531.782227,200.642090 526.525146,200.113251 520.933472,201.901520 
	C514.726135,203.886673 512.963501,209.076660 512.157959,215.585999 
	C520.216187,213.334732 527.792358,211.261047 535.315735,209.010895 
	C535.772888,208.874176 535.810852,207.336090 535.641235,205.841400 
z"/>
<path fill="#2C2829" opacity="1.000000" stroke="none" 
	d="
M645.791504,226.095978 
	C648.680908,227.455673 651.306702,229.042984 653.953796,230.643204 
	C646.791626,240.956100 631.787903,244.330704 620.058960,238.790009 
	C609.503601,233.803711 604.621826,221.565964 608.023193,208.618805 
	C610.923218,197.579681 621.956238,190.398895 634.113831,191.637848 
	C646.402771,192.890213 653.818542,200.584061 654.844177,213.609543 
	C643.637329,216.891342 632.319397,220.205673 620.893250,223.551682 
	C625.419067,231.614899 633.186218,233.744019 640.989136,229.390152 
	C642.577759,228.503723 644.018799,227.352676 645.791504,226.095978 
M622.393372,204.951553 
	C620.969421,208.141037 619.545532,211.330521 617.499756,215.912842 
	C627.186157,213.159637 635.168030,210.890930 643.288452,208.582825 
	C638.647156,200.050858 630.962402,198.685059 622.393372,204.951553 
z"/>
<path fill="#2B2728" opacity="1.000000" stroke="none" 
	d="
M429.992676,193.963242 
	C441.201294,199.680573 446.090088,209.737747 443.860382,221.968765 
	C441.977966,232.294693 433.490784,239.896622 422.362274,241.224426 
	C409.891235,242.712418 399.242798,237.090836 394.936066,226.745468 
	C390.568329,216.253555 393.159576,203.978760 401.737152,197.316940 
	C410.202759,190.742096 419.757721,190.303467 429.992676,193.963242 
M409.761108,205.150696 
	C403.144836,210.176041 403.215729,223.827667 410.574677,228.895752 
	C416.145172,232.732132 423.827728,232.185715 428.402740,227.427307 
	C433.407379,222.222015 433.785614,212.330795 429.193726,206.743225 
	C424.695129,201.269150 417.297180,200.450714 409.761108,205.150696 
z"/>
<path fill="#2D292A" opacity="1.000000" stroke="none" 
	d="
M508.467468,133.347900 
	C508.361542,118.932091 508.400787,104.948959 508.262665,90.967583 
	C508.233643,88.033157 509.063690,86.606873 512.171265,86.776993 
	C514.791077,86.920403 517.424988,86.806511 520.497070,86.806511 
	C520.497070,91.337730 520.497070,95.413857 520.497070,100.008675 
	C525.196838,100.008675 529.454041,100.008675 534.055420,100.008675 
	C534.055420,103.262207 534.055420,105.994247 534.055420,109.260666 
	C529.717712,109.260666 525.470215,109.260666 521.025146,109.260666 
	C521.025146,117.523628 520.791199,125.282753 521.256042,132.999802 
	C521.333252,134.282745 524.319214,135.935364 526.212158,136.404953 
	C527.969727,136.840973 530.062927,135.923981 532.464966,135.527313 
	C533.346558,138.297958 534.220886,141.045914 535.064941,143.698547 
	C525.821716,150.336395 510.138000,149.415710 508.467468,133.347900 
z"/>
<path fill="#2C2829" opacity="1.000000" stroke="none" 
	d="
M477.593567,175.668701 
	C481.460449,174.404510 485.317566,173.582336 489.717896,172.644363 
	C489.717896,184.933716 489.717957,195.874390 489.717896,206.815063 
	C489.717896,211.974777 489.652283,217.135498 489.732941,222.293945 
	C489.853851,230.028320 490.474213,230.527008 498.074036,229.523132 
	C498.320770,229.725525 498.782135,229.936966 498.776703,230.135620 
	C498.683563,233.530441 502.921600,237.732895 497.766418,240.162079 
	C490.981659,243.359131 482.986694,241.345154 480.244202,235.498718 
	C478.490906,231.761108 477.814362,227.237030 477.735992,223.045303 
	C477.443542,207.404953 477.597412,191.756256 477.593567,175.668701 
z"/>
<path fill="#2A2627" opacity="1.000000" stroke="none" 
	d="
M611.147583,111.999283 
	C611.143066,117.321014 611.118286,122.143044 611.139893,126.964867 
	C611.180054,135.948166 611.772949,136.525131 620.464478,135.947464 
	C620.627808,136.679504 620.929260,137.445084 620.947021,138.217209 
	C621.005493,140.752579 621.608521,145.242447 620.846008,145.495392 
	C617.192749,146.707230 613.010193,147.667114 609.293030,147.049072 
	C602.610413,145.938004 599.582520,140.509857 599.467224,134.319809 
	C599.130493,116.252487 599.347595,98.174843 599.347595,79.883553 
	C603.327698,79.883553 607.083984,79.883553 611.148193,79.883553 
	C611.148193,90.580925 611.148193,101.040215 611.147583,111.999283 
z"/>
<path fill="#282425" opacity="1.000000" stroke="none" 
	d="
M463.008087,218.887833 
	C463.008087,219.704163 463.007904,220.037399 463.008118,220.370651 
	C463.014832,230.056946 463.091064,230.135620 472.487457,229.693497 
	C472.877411,232.708313 473.272858,235.765335 473.664307,238.791504 
	C462.925262,244.970337 451.789032,240.145874 451.327087,228.306458 
	C450.621094,210.212906 451.141846,192.071472 451.141846,173.702316 
	C455.047638,173.702316 458.656830,173.702316 463.008087,173.702316 
	C463.008087,188.602783 463.008087,203.503769 463.008087,218.887833 
z"/>
<path fill="#312D2E" opacity="1.000000" stroke="none" 
	d="
M485.300354,134.967941 
	C485.300476,122.704323 485.300476,110.934380 485.300476,98.689377 
	C489.650391,98.689377 493.369110,98.689377 497.469635,98.689377 
	C497.469635,114.607239 497.469635,130.603577 497.469635,146.868561 
	C493.560699,146.868561 489.814178,146.868561 485.300232,146.868561 
	C485.300232,142.963913 485.300232,139.212753 485.300354,134.967941 
z"/>
<path fill="#2B2728" opacity="1.000000" stroke="none" 
	d="
M405.647949,112.019836 
	C405.648010,107.237083 405.648010,102.950363 405.648010,98.455406 
	C409.842377,98.455406 413.453918,98.455406 417.468628,98.455406 
	C417.468628,114.441048 417.468628,130.318176 417.468628,146.637131 
	C413.846741,146.637131 410.131561,146.637131 405.647858,146.637131 
	C405.647858,135.348511 405.647858,123.932182 405.647949,112.019836 
z"/>
<path fill="#312D2E" opacity="1.000000" stroke="none" 
	d="
M412.559204,91.128212 
	C406.973511,90.352341 404.165131,87.228142 405.247009,83.194534 
	C406.140778,79.862495 408.402496,77.136063 411.910553,77.923607 
	C414.169464,78.430733 416.971222,80.704651 417.723389,82.826897 
	C419.093719,86.693176 417.292847,89.921829 412.559204,91.128212 
z"/>
<path fill="#312D2E" opacity="1.000000" stroke="none" 
	d="
M495.169861,90.014999 
	C489.693634,91.821777 486.516846,90.582367 485.264343,86.479401 
	C484.219330,83.056152 486.104340,78.805862 489.722107,78.398308 
	C492.031677,78.138123 495.333801,79.294418 496.844818,81.004829 
	C499.359131,83.850937 498.226959,87.207802 495.169861,90.014999 
z"/>
<path fill="#FEFAFC" opacity="1.000000" stroke="none" 
	d="
M137.485077,121.944534 
	C141.812836,117.304070 146.171722,112.996117 151.217484,108.009323 
	C168.996109,125.152489 186.759613,142.281067 205.037720,159.905869 
	C186.927979,177.352356 169.050385,194.575180 151.127380,211.841782 
	C146.411942,207.034500 142.025314,202.562424 137.247025,197.691071 
	C149.956116,185.383545 162.814621,172.931320 174.575089,161.542435 
	C162.067078,148.289703 149.791641,135.283371 137.485077,121.944534 
z"/>
<path fill="#FCF4F8" opacity="1.000000" stroke="none" 
	d="
M265.848907,195.345337 
	C268.275879,195.345490 270.224579,195.345490 272.733093,195.345490 
	C272.733093,200.332779 272.955017,204.791702 272.571045,209.197845 
	C272.479431,210.249298 270.375519,211.942413 269.180359,211.956894 
	C253.728394,212.144073 238.273422,212.080811 222.415710,212.080811 
	C222.415710,206.636917 222.415710,201.405579 222.415710,195.345200 
	C236.618683,195.345200 250.994675,195.345200 265.848907,195.345337 
z"/>
<path fill="#FDFDFD" opacity="1.000000" stroke="none" 
	d="
M385.130585,119.104729 
	C382.832916,129.990707 376.438232,135.707169 365.859192,136.301956 
	C361.063660,136.571564 356.240417,136.347702 351.035980,136.347702 
	C351.035980,122.364632 351.035980,108.532082 351.035980,93.401108 
	C358.317444,94.072395 365.344452,93.931587 371.957428,95.517479 
	C381.519836,97.810722 387.151520,108.542328 385.130585,119.104729 
z"/>
<path fill="#FAFAFA" opacity="1.000000" stroke="none" 
	d="
M452.476776,107.762978 
	C460.116119,110.938416 462.820892,115.331886 462.156677,122.894470 
	C461.579926,129.461121 458.134186,133.818726 452.365692,135.060150 
	C447.206879,136.170364 442.712280,134.774017 439.508698,130.573349 
	C435.912537,125.857933 435.555634,120.546883 437.853668,115.116257 
	C439.844910,110.410645 443.421753,107.846451 448.582306,107.644821 
	C449.740082,107.599586 450.902252,107.666534 452.476776,107.762978 
z"/>
<path fill="#FAFAFA" opacity="1.000000" stroke="none" 
	d="
M569.102539,202.816315 
	C578.120178,199.678650 585.064209,202.638870 587.526123,210.323196 
	C590.023621,218.118759 586.283630,226.224945 579.092285,228.603088 
	C573.857056,230.334366 568.319458,228.532959 564.968811,224.008713 
	C561.241272,218.975739 561.255859,211.516907 565.163513,206.354218 
	C566.136475,205.068741 567.562256,204.125992 569.102539,202.816315 
z"/>
<path fill="#FBFAFA" opacity="1.000000" stroke="none" 
	d="
M570.123901,135.531342 
	C564.283936,138.516617 558.770935,138.655182 553.887024,134.699814 
	C548.827515,130.602142 548.034912,124.729149 549.248108,118.790070 
	C550.400024,113.151009 554.114014,109.522133 559.893311,108.235970 
	C565.274780,107.038345 570.921936,109.389511 574.098694,114.204010 
	C577.339111,119.114990 576.995117,127.885468 573.302002,132.530960 
	C572.483887,133.560013 571.407837,134.383987 570.123901,135.531342 
z"/>
<path fill="#F3F3F3" opacity="1.000000" stroke="none" 
	d="
M535.842529,206.145721 
	C535.810852,207.336090 535.772888,208.874176 535.315735,209.010895 
	C527.792358,211.261047 520.216187,213.334732 512.157959,215.585999 
	C512.963501,209.076660 514.726135,203.886673 520.933472,201.901520 
	C526.525146,200.113251 531.782227,200.642090 535.842529,206.145721 
z"/>
<path fill="#F2F2F2" opacity="1.000000" stroke="none" 
	d="
M622.672241,204.695755 
	C630.962402,198.685059 638.647156,200.050858 643.288452,208.582825 
	C635.168030,210.890930 627.186157,213.159637 617.499756,215.912842 
	C619.545532,211.330521 620.969421,208.141037 622.672241,204.695755 
z"/>
<path fill="#FBFBFB" opacity="1.000000" stroke="none" 
	d="
M410.051483,204.904175 
	C417.297180,200.450714 424.695129,201.269150 429.193726,206.743225 
	C433.785614,212.330795 433.407379,222.222015 428.402740,227.427307 
	C423.827728,232.185715 416.145172,232.732132 410.574677,228.895752 
	C403.215729,223.827667 403.144836,210.176041 410.051483,204.904175 
z"/>
</svg>